<svg xmlns="http://www.w3.org/2000/svg" width="298.016" height="329.473" viewBox="0 0 298.016 329.473">
  <defs>
    <style>
      .cls-1, .cls-2, .cls-3, .cls-4 {
        fill: #f5ced3;
      }

      .cls-1 {
        opacity: 0.15;
      }

      .cls-2 {
        opacity: 0.2;
      }

      .cls-3 {
        opacity: 0.1;
      }

      .cls-5 {
        fill: #fff;
      }

      .cls-6 {
        fill: #373841;
      }

      .cls-7 {
        fill: #f2e5e0;
      }

      .cls-8 {
        fill: none;
      }
    </style>
  </defs>
  <g id="_21" data-name="21" transform="translate(-32.777 -24.727)">
    <g id="Group_98" data-name="Group 98" transform="translate(296.212 0) rotate(80)">
      <path id="Path_76" data-name="Path 76" class="cls-1" d="M139.812.1c87.345-3.081,85.914,65.2,85.914,122.317S172.8,185.889,115.685,185.889-6.358,168.194.5,117,52.467,3.182,139.812.1Z" transform="matrix(0.766, 0.643, -0.643, 0.766, 119.487, 0)"/>
      <path id="Path_77" data-name="Path 77" class="cls-2" d="M145.172,101.782c0,57.114-61.55,63.471-127.969,63.471s80.91-88.861,80.91-145.975,47.059,25.39,47.059,82.5Z" transform="matrix(0.766, 0.643, -0.643, 0.766, 183.768, 80.876)"/>
      <path id="Path_78" data-name="Path 78" class="cls-3" d="M101.1,15.357c0,57.114-43.886,63.471-91.243,63.471S101.1-41.757,101.1,15.357Z" transform="matrix(0.485, 0.875, -0.875, 0.485, 116.88, 124.668)"/>
    </g>
    <path id="Path_549" data-name="Path 549" class="cls-4" d="M246.273,293.282c-1.355-2.444.016-6.883,2.46-8.237s5.034.889,6.388,3.332a5.059,5.059,0,0,1-8.848,4.906Z" transform="translate(-74.01 -55.192)"/>
    <g id="Path_550" data-name="Path 550" transform="matrix(-0.485, -0.875, 0.875, -0.485, 175.497, 278.539)">
      <path id="path12" class="cls-5" d="M1.287,2.574A1.287,1.287,0,1,1,1.287,0,1.949,1.949,0,0,1,2.445.661,2.087,2.087,0,0,1,3.1,1.886c0,.071,0,.189-.31.362A3.257,3.257,0,0,1,1.287,2.574Z" transform="translate(1.5 1.5)"/>
      <path id="path14" class="cls-6" d="M2.787,0A3.844,3.844,0,0,1,6.1,3.386c0,1.539-1.773,2.188-3.312,2.188A2.787,2.787,0,1,1,2.787,0Z" transform="translate(0 0)"/>
    </g>
    <path id="Path_526" class="cls-6" d="M294.375,126.588a11.609,11.609,0,0,0-5.2,1.764,20.676,20.676,0,0,0-6.91,8.234,45.937,45.937,0,0,0-4.186,12.295,60.25,60.25,0,0,0-9.926.77,29.069,29.069,0,0,0-8.211,2.395c-2.434,1.218-4.509,3.067-4.969,5.744-.845,4.915,1.875,10.9,4.582,15.908a78.763,78.763,0,0,0,4.908,7.969,103.879,103.879,0,0,0-8.605,10.832,45.737,45.737,0,0,0-5.377,9.793c-1.165,3.214-1.561,6.474.313,8.885,1.827,2.35,4.992,3.223,8.527,3.574a54.83,54.83,0,0,0,11.414-.336,112.147,112.147,0,0,0,13.578-2.465,54.7,54.7,0,0,0,8.58,10.717c5.717,5.576,13.91,10.854,23.2,8.594a13.045,13.045,0,0,0,9.24-7.844,26.264,26.264,0,0,0,1.467-11.951,57.439,57.439,0,0,0-3.045-14.436,54.985,54.985,0,0,0,9.676-8.857,33.433,33.433,0,0,0,6.18-9.953,16.837,16.837,0,0,0,.256-11.9c-1.466-3.944-3.669-6.461-6.176-7.826a12.523,12.523,0,0,0-7.627-1.262,20.1,20.1,0,0,0-6.709,2.1,57.3,57.3,0,0,0-2.785-12.1c-2.579-7.575-7.275-16.207-15.988-19.652a13.55,13.55,0,0,0-6.213-.99Zm.264,2.938a10.571,10.571,0,0,1,4.848.842c7.443,2.943,11.807,10.657,14.25,17.83a61.54,61.54,0,0,1,2.928,13.578l.188,2.52,2.121-1.371a20.75,20.75,0,0,1,7.471-2.713,9.514,9.514,0,0,1,5.82.92c1.815.989,3.521,2.807,4.8,6.238a13.693,13.693,0,0,1-.256,9.809,30.767,30.767,0,0,1-5.641,9.035,57.961,57.961,0,0,1-9.984,9.02l-.975.662.41,1.1a61.23,61.23,0,0,1,3.2,14.686,23.76,23.76,0,0,1-1.24,10.572,9.7,9.7,0,0,1-7.184,6.088c-7.847,1.909-15.028-2.587-20.4-7.826a57.217,57.217,0,0,1-8.693-11.01l-.568-.992-1.109.287a120.853,120.853,0,0,1-14.23,2.631,52.615,52.615,0,0,1-10.768.332c-3.174-.316-5.516-1.223-6.455-2.432-.892-1.148-.874-3.227.139-6.02a43.678,43.678,0,0,1,5.027-9.117,113.144,113.144,0,0,1,9.125-11.395l.844-.906-.729-1a85.53,85.53,0,0,1-5.373-8.625c-2.6-4.808-4.83-10.693-4.266-13.975.244-1.421,1.375-2.58,3.354-3.57a26.832,26.832,0,0,1,7.35-2.115,66.11,66.11,0,0,1,10.607-.748l1.3.031.213-1.285a49.648,49.648,0,0,1,4.172-12.648,18.112,18.112,0,0,1,5.846-7.072,8.535,8.535,0,0,1,3.859-1.363Z" transform="translate(-74.01 -55.192)"/>
    <path id="Path_528" class="cls-6" d="M377.555,215.377a11.761,11.761,0,0,0-2.719.033,20.671,20.671,0,0,0-9.742,4.541,45.917,45.917,0,0,0-8.988,9.377,60.231,60.231,0,0,0-9.322-3.5,29.082,29.082,0,0,0-8.455-1.3c-2.72.076-5.381.874-6.93,3.105-2.843,4.1-2.9,10.67-2.568,16.355a78.78,78.78,0,0,0,1.08,9.293,103.961,103.961,0,0,0-12.377,6.182,45.749,45.749,0,0,0-9.012,6.6c-2.414,2.42-4.151,5.207-3.473,8.184.661,2.9,3.161,5.031,6.217,6.844a54.822,54.822,0,0,0,10.486,4.52,112.092,112.092,0,0,0,13.35,3.5,54.677,54.677,0,0,0,3.246,13.338c2.825,7.47,8.021,15.717,17.4,17.6a13.046,13.046,0,0,0,11.689-3.205,26.259,26.259,0,0,0,6.379-10.211,57.452,57.452,0,0,0,3.342-14.369,55.008,55.008,0,0,0,12.512-3.939,33.438,33.438,0,0,0,9.809-6.408,16.836,16.836,0,0,0,5.258-10.674c.338-4.194-.592-7.406-2.287-9.7a12.528,12.528,0,0,0-6.381-4.367,20.112,20.112,0,0,0-6.967-.936,57.25,57.25,0,0,0,2.592-12.143c.864-7.956.256-17.763-6.186-24.568A12.717,12.717,0,0,0,377.555,215.377Zm-.289,2.957a9.342,9.342,0,0,1,6.061,3.26c5.5,5.813,6.2,14.648,5.383,22.182a61.451,61.451,0,0,1-3.088,13.543l-.893,2.361,2.5-.344a20.739,20.739,0,0,1,7.918.7,9.515,9.515,0,0,1,4.887,3.293c1.227,1.663,2,4.033,1.711,7.682a13.692,13.692,0,0,1-4.377,8.781,30.763,30.763,0,0,1-8.93,5.8,58.024,58.024,0,0,1-12.863,3.957l-1.162.188-.094,1.174a61.281,61.281,0,0,1-3.309,14.662,23.761,23.761,0,0,1-5.592,9.057,9.7,9.7,0,0,1-9.084,2.482c-7.918-1.586-12.525-8.7-15.18-15.715a57.238,57.238,0,0,1-3.227-13.652l-.1-1.141-1.125-.207a120.978,120.978,0,0,1-14.012-3.631,52.584,52.584,0,0,1-9.9-4.25c-2.743-1.627-4.482-3.44-4.822-4.932-.323-1.418.572-3.293,2.67-5.4a43.689,43.689,0,0,1,8.41-6.137,113.349,113.349,0,0,1,13.086-6.473l1.146-.463-.236-1.215a85.342,85.342,0,0,1-1.227-10.088c-.323-5.456.141-11.732,2.039-14.467.822-1.184,2.337-1.757,4.549-1.818a26.826,26.826,0,0,1,7.555,1.188,66.146,66.146,0,0,1,9.932,3.8l1.166.58.738-1.076a49.664,49.664,0,0,1,9.127-9.7,18.106,18.106,0,0,1,8.285-3.939,9.514,9.514,0,0,1,2.051-.051Z" transform="translate(-74.01 -55.192)"/>
    <path id="Path_547" data-name="Path 547" class="cls-7" d="M295.68,173.2s.952-5.743,4.292-4.423,3.747,6.759,3.747,6.759,3.065-1.979,4.2,1.071-3.4,6.126-3.4,6.126,2.246,6.029-1.3,6.891-6.357-4.042-6.357-4.042-5.682,1.472-6.825,0,2.972-5.887,2.972-5.887-2.339-3.213-2.048-4.908,4.719-1.587,4.719-1.587Z" transform="translate(-74.01 -55.192)"/>
    <path id="Path_527" data-name="Path 527" class="cls-6" d="M291.892,173.2s.952-5.743,4.292-4.423,3.747,6.759,3.747,6.759,3.065-1.979,4.2,1.071-3.4,6.126-3.4,6.126,2.246,6.029-1.3,6.891-6.357-4.042-6.357-4.042-5.682,1.472-6.825,0,2.972-5.887,2.972-5.887-2.339-3.213-2.048-4.908,4.719-1.587,4.719-1.587Z" transform="translate(-74.01 -55.192)"/>
    <path id="Path_548" data-name="Path 548" class="cls-7" d="M362.129,257.206s3.294-4.8,5.758-2.192.539,7.709.539,7.709,3.614-.5,3.354,2.746-5.67,4.115-5.67,4.115-.512,6.413-4.09,5.7-4.051-6.354-4.051-6.354-5.773-1.065-6.186-2.885,5.181-4.079,5.181-4.079-.761-3.9.219-5.31S362.129,257.206,362.129,257.206Z" transform="translate(-74.01 -55.192)"/>
    <path id="Path_529" data-name="Path 529" class="cls-6" d="M358.341,257.206s3.294-4.8,5.758-2.192.539,7.709.539,7.709,3.614-.5,3.354,2.746-5.67,4.115-5.67,4.115-.512,6.413-4.09,5.7-4.051-6.354-4.051-6.354-5.773-1.065-6.186-2.885,5.181-4.079,5.181-4.079-.761-3.9.219-5.31S358.341,257.206,358.341,257.206Z" transform="translate(-74.01 -55.192)"/>
    <path id="Path_530" class="cls-6" d="M280.365,220.793s-.058,13.394-.383,28.027c-.163,7.316-.392,14.942-.713,21.346a117.294,117.294,0,0,1-1.238,13.895,25.175,25.175,0,0,1-2.73,5.479c-1.581,2.593-3.75,5.8-6.3,9.385-5.1,7.162-11.727,15.812-18.287,24.152-12.962,16.481-25.364,31.375-25.668,31.74l-55.527,12.676.668,2.924,56.529-12.9.324-.391s12.88-15.468,26.033-32.191c6.576-8.361,13.22-17.036,18.371-24.268,2.575-3.616,4.777-6.87,6.42-9.564s2.739-4.717,3.1-6.41a111.916,111.916,0,0,0,1.3-14.373c.323-6.451.552-14.1.715-21.43.326-14.666.385-28.08.385-28.08Z" transform="translate(-74.01 -55.192)"/>
    <path id="Path_531" class="cls-6" d="M282.2,283.5l-.668,2.926,39.111,8.928.668-2.926Z" transform="translate(-74.01 -55.192)"/>
    <path id="Path_532" class="cls-6" d="M226.348,355.588l-.979,2.836,42.5,14.668.979-2.836Z" transform="translate(-74.01 -55.192)"/>
    <path id="Path_546" data-name="Path 546" class="cls-7" d="M299.743,365.525c11.839-3.62,29.824,6.416,33.444,18.257s-8.495,21.005-20.334,24.625a22.421,22.421,0,1,1-13.11-42.882Z" transform="translate(-74.01 -55.192)"/>
    <path id="path27" class="cls-8" d="M285.5,358.018c11.839-3.62,29.824,6.416,33.444,18.257s-8.495,21.005-20.334,24.625a22.42,22.42,0,1,1-13.11-42.882Z" transform="translate(-74.01 -55.192)"/>
    <path id="path29" class="cls-6" d="M286.376,360.887a19.42,19.42,0,0,0,11.356,37.144c5.915-1.808,11.265-4.884,14.678-8.438,3.758-3.914,4.991-8.1,3.664-12.44a19.025,19.025,0,0,0-4.412-7.187,31.614,31.614,0,0,0-7.8-5.988c-6.171-3.395-12.706-4.55-17.482-3.09m-.877-2.869c11.841-3.62,29.823,6.416,33.444,18.257s-8.492,21-20.334,24.625a22.42,22.42,0,0,1-13.11-42.882Z" transform="translate(-74.01 -55.192)"/>
  </g>
</svg>
