<svg xmlns="http://www.w3.org/2000/svg" xmlns:xlink="http://www.w3.org/1999/xlink" width="500" height="500" viewBox="0 0 500 500">
  <defs>
    <style>
      .cls-1 {
        clip-path: url(#clip-path);
      }

      .cls-2, .cls-3, .cls-4, .cls-5 {
        fill: #f5ced3;
      }

      .cls-2 {
        opacity: 0.15;
      }

      .cls-3 {
        opacity: 0.2;
      }

      .cls-4 {
        opacity: 0.1;
      }

      .cls-6 {
        fill: #fff;
      }

      .cls-7 {
        fill: #373841;
      }

      .cls-8 {
        fill: #bfc4bc;
      }

      .cls-9 {
        fill: #f2e5e0;
      }

      .cls-10 {
        fill: none;
        stroke: #373841;
        stroke-linecap: round;
        stroke-linejoin: round;
        stroke-width: 3px;
      }
    </style>
    <clipPath id="clip-path">
      <rect id="rect2" width="500" height="500" transform="translate(0.363)"/>
    </clipPath>
  </defs>
  <g id="_19" data-name="19" class="cls-1" transform="translate(-0.363)">
    <g id="Group_149" data-name="Group 149" transform="translate(111.915 75.538)">
      <g id="Group_91" data-name="Group 91" transform="translate(235.564 31.245) rotate(80)">
        <path id="Path_76" data-name="Path 76" class="cls-2" d="M111.184.08c69.462-2.45,68.324,51.853,68.324,97.273S137.418,147.829,92,147.829-5.058,133.757.4,93.043,41.723,2.53,111.184.08Z" transform="matrix(0.766, 0.643, -0.643, 0.766, 95.023, 0)"/>
        <path id="Path_77" data-name="Path 77" class="cls-3" d="M115.448,80.943c0,45.42-48.948,50.476-101.768,50.476S78.024,60.752,78.024,15.331,115.448,35.523,115.448,80.943Z" transform="matrix(0.766, 0.643, -0.643, 0.766, 146.141, 64.316)"/>
        <path id="Path_78" data-name="Path 78" class="cls-4" d="M80.4,12.213c0,45.42-34.9,50.476-72.562,50.476S80.4-33.208,80.4,12.213Z" transform="matrix(0.485, 0.875, -0.875, 0.485, 92.948, 99.141)"/>
      </g>
      <path id="Path_440" data-name="Path 440" class="cls-5" d="M4.023,0C6.244,0,8.8,2.665,8.8,4.887S6.244,8.045,4.023,8.045A4.023,4.023,0,1,1,4.023,0Z" transform="matrix(-0.485, -0.875, 0.875, -0.485, 144.247, 222.541)"/>
      <g id="Path_441" data-name="Path 441" transform="matrix(-0.485, -0.875, 0.875, -0.485, 144.869, 251.19)">
        <path id="path12" class="cls-6" d="M.717,1.433A.717.717,0,1,1,.717,0a1.325,1.325,0,0,1,.7.433,1.522,1.522,0,0,1,.431.725A2.027,2.027,0,0,1,.717,1.433Z" transform="translate(1.5 1.5)"/>
        <path id="path14" class="cls-7" d="M2.217,0A3.057,3.057,0,0,1,4.851,2.693c0,1.224-1.41,1.74-2.634,1.74A2.217,2.217,0,1,1,2.217,0Z" transform="translate(0 0)"/>
      </g>
      <g id="Group_90" data-name="Group 90" transform="translate(59.737)">
        <path id="Path_442" data-name="Path 442" class="cls-8" d="M2609.527,4080.918s-14.507-2.381-21.083,22.466-21.171,43.921-12.79,50.184,36.856-9.363,46.32-25.138,6.2-45.017,6.2-45.017" transform="translate(-2551.024 -3951.941)"/>
        <path id="Path_422" class="cls-7" d="M41.166,27.7a2.693,2.693,0,0,0-1.7.324A6.84,6.84,0,0,0,37.1,30.608c-1.565,2.49-3.667,7.42-5.686,13.988a123.371,123.371,0,0,0-4.775,23.33c-1.753,17.244.486,36.594,14.149,48.682,13.3,11.769,23.449,15.113,30.4,15.367a19.768,19.768,0,0,0,7.938-1.225,11.83,11.83,0,0,0,2.846-1.539,1.5,1.5,0,1,0-1.9-2.32,7.708,7.708,0,0,1-2.035,1.064,16.7,16.7,0,0,1-6.736,1.022c-6.1-.223-15.578-3.162-28.525-14.617C30.19,103.224,27.921,84.991,29.625,68.229a120.547,120.547,0,0,1,4.66-22.752A66.117,66.117,0,0,1,39.64,32.206a4.838,4.838,0,0,1,1.029-1.256,4.686,4.686,0,0,1,.576,1.188c.307.882.622,2.069.949,3.457,1.308,5.552,2.814,14.3,6.426,22.014,3.735,7.982,11.05,11.628,19.041,13.959s16.83,3.5,24.293,6.387c3.733,1.444,5.864,2.837,6.92,3.93s1.1,1.727.992,2.3c-.215,1.155-1.984,2.418-1.984,2.418A1.5,1.5,0,1,0,99.39,89.2a6.875,6.875,0,0,0,3.426-4.461,5.717,5.717,0,0,0-1.783-4.939c-1.54-1.594-4.027-3.109-8-4.645C85.1,72.083,76.17,70.925,68.5,68.688s-13.91-5.4-17.162-12.352c-3.376-7.214-4.875-15.7-6.225-21.43a38.851,38.851,0,0,0-1.035-3.756,6.65,6.65,0,0,0-1.449-2.662,2.716,2.716,0,0,0-1.465-.791Z" transform="translate(0.087 1.497)"/>
        <path id="Path_423" class="cls-7" d="M141.512,42.151a2.4,2.4,0,0,0-1.6.463,4.309,4.309,0,0,0-1.406,2.246c-.63,1.746-1.113,4.185-1.818,7.139-1.411,5.908-3.634,13.722-8.605,20.307-5.046,6.684-9.136,9.054-14.506,11.766s-11.978,5.685-21.252,13.2c-9.461,7.663-11.62,15.753-11.182,21.816a21.732,21.732,0,0,0,3.379,10.184,1.5,1.5,0,1,0,2.443-1.742,18.439,18.439,0,0,1-2.83-8.656c-.377-5.211,1.229-12.1,10.078-19.271,9.037-7.319,15.249-10.09,20.715-12.85s10.227-5.586,15.549-12.635c5.4-7.148,7.693-15.405,9.129-21.418.718-3.006,1.241-5.491,1.721-6.818a.958.958,0,0,1,.074-.162,5.557,5.557,0,0,1,.75,1.361,35.311,35.311,0,0,1,1.547,4.963A77.047,77.047,0,0,1,145.68,67.8c.326,12.326-2.006,27.251-10.613,39.125-17.353,23.938-41.736,22.793-41.736,22.793a1.5,1.5,0,1,0-.129,3s26.124,1.035,44.295-24.031c9.154-12.628,11.519-28.2,11.182-40.965a79.818,79.818,0,0,0-2.066-16.393,37.835,37.835,0,0,0-1.689-5.4,7.07,7.07,0,0,0-2-3.174,2.707,2.707,0,0,0-1.408-.605Z" transform="translate(0.087 1.497)"/>
        <path id="Path_424" data-name="Path 424" class="cls-9" d="M2642.394,3974.926l4.1-16.359s14.885.751,16.854,6.514a49.106,49.106,0,0,1,2.009,13.2s-6.866,10.238-20.782,3.728-26.775-32.482-26.775-32.482,22.178-10.291,37.886-1.543,20.267,17.1,20.267,17.1v27.787" transform="translate(-2554.782 -3919.975)"/>
        <path id="Path_425" class="cls-7" d="M58.73,29.417a1.5,1.5,0,0,0-1.057.391,5.452,5.452,0,0,0-.7.881,13.846,13.846,0,0,0-1.189,2.488,56.98,56.98,0,0,0-2.77,13c-.811,6.643-.829,10.127-.6,12.107a6.149,6.149,0,0,0,.525,2.105,2.3,2.3,0,0,0,.469.648,1.767,1.767,0,0,0,.318.242,3.008,3.008,0,0,0,.354.156A1.5,1.5,0,0,0,55.6,58.962a3.76,3.76,0,0,1-.209-1.018c-.176-1.549-.194-4.885.6-11.4a54.472,54.472,0,0,1,2.6-12.3,11.022,11.022,0,0,1,.92-1.949c.2-.317.152-.238.152-.238a1.5,1.5,0,0,0-.934-2.637Z" transform="translate(0.087 1.497)"/>
        <path id="Path_426" class="cls-7" d="M112.038,57.384a1.5,1.5,0,0,0-1.541,1.6l.861,15.871a1.5,1.5,0,0,0,3-.162l-.863-15.871a1.5,1.5,0,0,0-1.453-1.439Z" transform="translate(0.087 1.497)"/>
        <path id="Path_427" class="cls-7" d="M64.306-1.5C50.841-1.454,39.682,3.479,30.429,11.87c-5.6,5.078-6.335,11.881-5.67,17.174a31.921,31.921,0,0,0,2.7,9.34,1.5,1.5,0,0,0,2.684-1.342,28.961,28.961,0,0,1-2.4-8.373c-.595-4.733-.01-10.3,4.709-14.576C42.508,4.967,54.54.269,69.927,1.775c14.74,1.442,23.248,18.053,23.248,18.053a1.5,1.5,0,0,0,2.684-1.342S87.019.432,70.218-1.212A58.719,58.719,0,0,0,64.306-1.5Z" transform="translate(0.087 1.497)"/>
        <path id="Path_428" class="cls-7" d="M101.3-.981A47.38,47.38,0,0,0,84.265,1.593,1.5,1.5,0,1,0,85.4,4.37s25.813-10.688,49.342,12.254c11.827,11.531,14.9,21.562,15.168,28.687s-2.24,11.262-2.24,11.262a1.5,1.5,0,0,0,2.576,1.539A25.414,25.414,0,0,0,152.9,45.2c-.295-7.9-3.8-18.761-16.072-30.723C124.5,2.456,111.36-.765,101.3-.981Z" transform="translate(0.087 1.497)"/>
        <path id="Path_429" class="cls-7" d="M63.179,129.012a15.334,15.334,0,0,0-9.055,2.09c-4.841,2.732-10.36,8.774-13.721,21.473-6.581,24.865-12.8,50.211-12.8,50.211a1.5,1.5,0,0,0,1.826,1.811,161.959,161.959,0,0,0,19.816-6.721c10.509-4.359,22.313-10.588,27.42-19.1,9.765-16.276,9.5-37.17,9.5-37.17a1.5,1.5,0,1,0-3,.025s.089,20.328-9.074,35.6c-4.357,7.263-15.713,13.6-26,17.871a142.011,142.011,0,0,1-16.934,5.869c.58-2.362,5.9-24.053,12.139-47.631C46.519,141.193,51.54,136,55.6,133.715s7.1-1.742,7.1-1.742a1.5,1.5,0,1,0,.486-2.961Z" transform="translate(0.087 1.497)"/>
        <path id="Path_430" class="cls-7" d="M80.038,133.155a1.5,1.5,0,0,0-1.152.52s-8.7,9.836-17.248,29.615c-4.1,9.476-12.333,19.1-19.549,26.275a157.267,157.267,0,0,1-13.367,11.912,1.5,1.5,0,0,0,1.832,2.377,160.635,160.635,0,0,0,13.652-12.162c7.353-7.313,15.805-17.082,20.186-27.213,8.4-19.435,16.738-28.814,16.738-28.814a1.5,1.5,0,0,0-1.092-2.51Z" transform="translate(0.087 1.497)"/>
        <path id="Path_431" class="cls-7" d="M89.05,133.171a1.5,1.5,0,1,0,.092,3,109.415,109.415,0,0,1,17,1.1c9.178,1.336,19.594,4.359,24.672,10.2,5.232,6.016,11.038,18.909,15.084,31.244a145.33,145.33,0,0,1,4.594,17.219,39.422,39.422,0,0,1,.836,8.824c-.636-1.6-1.266-3.269-2.275-6-2.731-7.376-6.876-17.414-14.156-23.344-7.2-5.861-14.315-6.081-20.338-6.539s-10.825-.994-15.346-7.326a48.874,48.874,0,0,1-7.822-15.607,17.424,17.424,0,0,1-.795-5.482,1.5,1.5,0,0,0-2.99-.252,21.771,21.771,0,0,0,.885,6.5A51.92,51.92,0,0,0,96.767,163.3c5.1,7.137,11.43,8.106,17.561,8.572s12.182.59,18.67,5.875c6.4,5.216,10.55,14.8,13.238,22.059,1.344,3.63,2.294,6.607,3.211,8.422a5.327,5.327,0,0,0,.781,1.215,2.06,2.06,0,0,0,1.861.742,2.087,2.087,0,0,0,1.535-1.225,6.779,6.779,0,0,0,.551-1.568c.688-2.76.251-6.845-.742-12.02a147.952,147.952,0,0,0-4.689-17.59c-4.114-12.542-9.794-25.52-15.67-32.277-6.03-6.934-17.036-9.819-26.5-11.2a112.291,112.291,0,0,0-17.52-1.133Z" transform="translate(0.087 1.497)"/>
        <path id="Path_432" class="cls-7" d="M92.519,138.632a1.5,1.5,0,0,0-.2,2.982,112.546,112.546,0,0,1,14.293,3.65c7.862,2.557,17.1,6.625,22.514,12.215,5.376,5.548,10.714,17.239,14.52,27.441s6.188,18.934,6.188,18.934a1.5,1.5,0,1,0,2.895-.789s-2.413-8.849-6.272-19.193-9.059-22.168-15.176-28.48c-6.077-6.271-15.659-10.352-23.74-12.98a115.6,115.6,0,0,0-14.719-3.754A1.5,1.5,0,0,0,92.519,138.632Z" transform="translate(0.087 1.497)"/>
        <path id="Path_433" class="cls-7" d="M89.067,143.622a1.5,1.5,0,0,0-1.418,1.955S108.3,214,117.151,253.132c8.766,38.745-.018,93.662-.018,93.662a1.5,1.5,0,1,0,2.963.478s8.974-55.05-.02-94.8C111.17,213.1,90.521,144.71,90.521,144.71a1.5,1.5,0,0,0-1.453-1.088Z" transform="translate(0.087 1.497)"/>
        <path id="Path_434" data-name="Path 434" class="cls-7" d="M6.481,0c3.579,0,7.7,4.294,7.7,7.874s-4.123,5.089-7.7,5.089A6.481,6.481,0,1,1,6.482,0Z" transform="matrix(-0.485, -0.875, 0.875, -0.485, 147.18, 140.599)"/>
        <path id="Path_439" data-name="Path 439" class="cls-7" d="M6.481,12.962c3.579,0,7.7-4.294,7.7-7.874S10.061,0,6.481,0a6.481,6.481,0,1,0,0,12.962Z" transform="translate(10.605 134.314) rotate(-61.001)"/>
        <path id="Path_435" data-name="Path 435" class="cls-5" d="M5.173,0c2.76,0,5.938,3.311,5.938,6.07S7.93,10,5.173,10A5,5,0,1,1,5.173,0Z" transform="matrix(-0.485, -0.875, 0.875, -0.485, 160.376, 103.95)"/>
        <path id="Path_438" data-name="Path 438" class="cls-7" d="M5.173,10c2.76,0,5.938-3.311,5.938-6.07S7.93,0,5.173,0a5,5,0,1,0,0,9.994Z" transform="translate(0 99.102) rotate(-61.001)"/>
        <path id="Path_436" data-name="Path 436" class="cls-7" d="M2.578,0A3.656,3.656,0,0,1,5.727,3.221C5.727,4.685,4.042,5.3,2.578,5.3a2.651,2.651,0,0,1,0-5.3Z" transform="matrix(-0.485, -0.875, 0.875, -0.485, 161.066, 69.63)"/>
        <path id="Path_437" data-name="Path 437" class="cls-5" d="M2.724,5.3A3.656,3.656,0,0,0,5.873,2.083C5.873.618,4.188,0,2.724,0a2.651,2.651,0,1,0,0,5.3Z" transform="translate(3.346 67.186) rotate(-61.001)"/>
        <path id="Path_424-2" data-name="Path 424" class="cls-10" d="M2642.394,3974.926l4.1-16.359s14.885.751,16.854,6.514a49.106,49.106,0,0,1,2.009,13.2s-6.866,10.238-20.782,3.728-26.775-32.482-26.775-32.482,22.178-10.291,37.886-1.543,20.267,17.1,20.267,17.1v27.787" transform="translate(-2554.782 -3919.975)"/>
      </g>
    </g>
  </g>
</svg>
