<svg xmlns="http://www.w3.org/2000/svg" width="295.732" height="275.552" viewBox="0 0 295.732 275.552">
  <defs>
    <style>
      .cls-1, .cls-2, .cls-3, .cls-7 {
        fill: #d4cfe8;
      }

      .cls-1 {
        opacity: 0.15;
      }

      .cls-2 {
        opacity: 0.2;
      }

      .cls-3 {
        opacity: 0.1;
      }

      .cls-4 {
        fill: #373841;
      }

      .cls-5 {
        fill: #f5ced3;
      }

      .cls-6 {
        fill: none;
      }
    </style>
  </defs>
  <g id="_12" data-name="12" transform="translate(-95.335 -113.776)">
    <g id="Group_16" data-name="Group 16" transform="matrix(0.515, 0.857, -0.857, 0.515, 284.481, 19.991)">
      <path id="Path_76" data-name="Path 76" class="cls-1" d="M133.239.252c81.74-4.753,78.92,58.6,77.68,111.573S191.166,236.456,137.761,237.7-7.087,159.315.437,111.686,51.5,5,133.239.252Z" transform="matrix(0.766, 0.643, -0.643, 0.766, 152.797, 0)"/>
      <path id="Path_77" data-name="Path 77" class="cls-2" d="M136.945,93.519c-1.24,52.968-58.931,60.2-121.037,61.641S93.493,70.994,94.733,18.026,138.184,40.551,136.945,93.519Z" transform="matrix(0.766, 0.643, -0.643, 0.766, 212.795, 73.655)"/>
      <path id="Path_78" data-name="Path 78" class="cls-3" d="M94.032,14.242C92.965,68.1,52.491,74.91,8.943,75.795S95.1-39.612,94.032,14.242Z" transform="translate(150.974 115.43) rotate(61.001)"/>
    </g>
    <path id="Path_122" class="cls-4" d="M244.643,139.885a7.457,7.457,0,0,0-5.076,1.453c-4.5,3.64-7.5,8.974-10.635,13.67s-6.326,8.664-10.789,10.123a1.5,1.5,0,1,0,.934,2.852c5.564-1.82,9.136-6.492,12.352-11.309s6.153-9.87,10.025-13a4.453,4.453,0,0,1,3.076-.789,17.424,17.424,0,0,1,5.08,1.17,68.376,68.376,0,0,1,12.693,6.758,179.924,179.924,0,0,1,16.178,12.012,1.5,1.5,0,0,0,.332.213,68.371,68.371,0,0,1,11.7,7.414c6,4.726,12.138,11.44,13.277,19.17,1.208,8.193.552,12.793-1.764,17.346a48.575,48.575,0,0,1-5.16,7.607,10.577,10.577,0,0,0-.176-3.846c-1.7-7.179-4.633-11.106-7.559-15.037a44.754,44.754,0,0,1-8.24-15.91c-2.4-8.13-3.942-16.164-8.6-20.336-2.327-2.086-5.569-2.948-9.426-2.029s-8.426,3.436-14.262,7.955c-11.119,8.61-20.468,7.68-28.389,6.326-3.96-.677-7.518-1.534-10.811-1.246a9.7,9.7,0,0,0-8.158,5.947,12.48,12.48,0,0,0,.232,11.168c1.63,3.366,4.313,6.376,7,9.313a61.637,61.637,0,0,1,7.092,8.619c1.715,2.82,2.462,5.444,1.605,8.359-1.965,6.687-4.453,12.04-4.367,16.74a8.265,8.265,0,0,0,2.834,6.275c1.932,1.668,4.77,2.792,8.828,3.592,7.641,1.506,14.185,4.434,20.705,6.816s13.067,4.218,20.5,3.234c7.35-.972,11.341-3.716,14.6-7.937s5.982-9.782,11.742-17.125c5.813-7.41,10.087-12.02,12.684-17.125s3.313-10.62,2.057-19.145c-1.325-8.988-8.1-16.134-14.391-21.09a69.8,69.8,0,0,0-12.08-7.666,179.372,179.372,0,0,0-16.35-12.133,70.359,70.359,0,0,0-13.295-7.059,19.948,19.948,0,0,0-6-1.35ZM267.48,160.16a6.15,6.15,0,0,1,2.811,1.516c3.353,3.006,5.282,10.7,7.721,18.953a48.418,48.418,0,0,0,8.711,16.852c2.933,3.941,5.465,7.256,7.045,13.936.733,3.1.106,4.65-1.482,6.117s-4.416,2.664-7.879,3.852c-6.925,2.374-16.312,4.822-23.2,12.141a6.585,6.585,0,0,1-4.605,2.25,11.917,11.917,0,0,1-5.885-1.461c-4.336-2.144-9.244-6.562-13.766-11.953a97.425,97.425,0,0,1-11.734-17.725c-3.05-5.978-4.954-11.634-5.1-15.3-.152-3.775.786-5.4,2.594-6.465s4.91-1.415,8.891-1.309c7.962.212,19.21,2.043,30.941.119,5.512-.9,8.29-.156,9.465,1.039s1.395,3.441.689,6.729c-1.411,6.576-6.318,16.078-8.656,24.422a7.356,7.356,0,0,1-2.021,3.654,3.861,3.861,0,0,1-2.7.977c-2.141.007-5.132-1.419-7.961-3.879-5.657-4.921-10.443-13.717-9.365-19.9a5.778,5.778,0,0,1,1.088-2.85.919.919,0,0,1,1.051-.311c1.076.175,3.224,1.663,5.236,3.738a77.057,77.057,0,0,1,7.891,10.182,1.5,1.5,0,1,0,2.529-1.611,77.515,77.515,0,0,0-8.266-10.658c-2.181-2.249-4.378-4.2-6.91-4.611a4.239,4.239,0,0,0-3.7,1.2,8.186,8.186,0,0,0-1.879,4.412c-1.392,7.987,4.04,17.19,10.352,22.68,3.156,2.745,6.585,4.626,9.938,4.615a7.058,7.058,0,0,0,4.67-1.721,10.278,10.278,0,0,0,2.934-5.1c2.2-7.844,7.124-17.252,8.7-24.6.788-3.676.791-7.148-1.482-9.461s-6.175-2.865-12.09-1.895c-11.123,1.824-22.047.062-30.377-.16-4.165-.111-7.738.107-10.488,1.721s-4.252,4.758-4.074,9.174c.182,4.525,2.268,10.347,5.428,16.541a100.118,100.118,0,0,0,12.107,18.289c4.683,5.585,9.757,10.253,14.734,12.715a14.75,14.75,0,0,0,7.4,1.766,9.829,9.829,0,0,0,6.6-3.187c6.18-6.564,14.9-8.927,21.992-11.359a41.386,41.386,0,0,0,5.691-2.395c-.522.656-.861,1.067-1.414,1.771-5.929,7.557-8.8,13.309-11.758,17.145s-5.8,5.893-12.615,6.795c-6.729.89-12.7-.748-19.08-3.078s-13.112-5.356-21.154-6.941c-3.783-.746-6.135-1.786-7.449-2.92a4.89,4.89,0,0,1-1.793-4.059c-.064-3.488,2.218-8.946,4.244-15.84,1.139-3.875.043-7.536-1.92-10.764a62.251,62.251,0,0,0-7.439-9.084c-2.658-2.909-5.147-5.779-6.512-8.6a9.108,9.108,0,0,1-.223-8.572c1.51-3.176,3.167-4.024,5.711-4.246s5.986.522,10.043,1.215c8.113,1.387,18.864,2.277,30.73-6.912,5.657-4.381,9.967-6.655,13.121-7.406a8.646,8.646,0,0,1,3.918-.174Z"/>
    <path id="Path_123" class="cls-4" d="M341.131,217.424a12.486,12.486,0,0,0-10.414,4.041c-2.605,2.683-4.517,6.232-6.359,9.758a61.665,61.665,0,0,1-5.674,9.611c-2.063,2.576-4.273,4.174-7.3,4.367-6.953.443-12.834-.062-17.223,1.625a8.263,8.263,0,0,0-4.93,4.807c-.907,2.386-.994,5.436-.357,9.523,1.2,7.7.684,14.845.676,21.787s.506,13.723,3.973,20.373c3.427,6.574,7.371,9.386,12.451,11s11.237,2.276,20.107,5.178c8.951,2.928,14.746,5.367,20.432,6.061s11.112-.519,18.693-4.615c7.993-4.319,12.391-13.128,14.9-20.736a69.751,69.751,0,0,0,3.072-13.965,179.615,179.615,0,0,0,5.811-19.521,70.373,70.373,0,0,0,2.086-14.908,19.952,19.952,0,0,0-.785-6.1,7.456,7.456,0,0,0-3.1-4.273c-4.959-2.984-11-3.978-16.482-5.316s-10.3-2.98-13.2-6.672a1.5,1.5,0,0,0-2.361,1.854c3.612,4.6,9.226,6.36,14.852,7.732s11.379,2.4,15.646,4.973a4.451,4.451,0,0,1,1.791,2.621,17.415,17.415,0,0,1,.641,5.174,68.423,68.423,0,0,1-2.01,14.24,179.929,179.929,0,0,1-5.754,19.311,1.5,1.5,0,0,0-.086.383,68.443,68.443,0,0,1-2.969,13.529c-2.389,7.256-6.6,15.321-13.475,19.035-7.286,3.937-11.832,4.894-16.9,4.275a48.583,48.583,0,0,1-8.914-2.248,10.58,10.58,0,0,0,3.553-1.479c6.163-4.051,8.848-8.152,11.543-12.246a44.794,44.794,0,0,1,12.137-13.186c6.818-5.038,13.841-9.233,16.17-15.033,1.164-2.9.864-6.241-1.318-9.551s-6.109-6.745-12.352-10.684c-11.894-7.5-14.217-16.609-15.654-24.516-.719-3.953-1.131-7.589-2.527-10.584a9.692,9.692,0,0,0-8.377-5.629Zm-.283,2.986c3.5.331,4.863,1.6,5.941,3.91s1.557,5.8,2.293,9.854c1.472,8.1,4.312,18.509,17.006,26.518,6.051,3.817,9.665,7.09,11.449,9.8s1.876,4.69,1.037,6.779c-1.678,4.179-8.244,8.622-15.168,13.738a48.454,48.454,0,0,0-12.859,13.949c-2.7,4.1-4.951,7.62-10.686,11.389-2.658,1.747-4.331,1.688-6.252.7s-4.013-3.238-6.312-6.086c-4.6-5.7-10.111-13.68-19.346-17.652a6.582,6.582,0,0,1-3.687-3.559,11.916,11.916,0,0,1-.641-6.029c.532-4.807,3-10.928,6.523-17.02a97.465,97.465,0,0,1,12.645-17.09c4.574-4.91,9.235-8.635,12.629-10.027,3.5-1.434,5.348-1.111,6.963.225s3.01,4.131,4.271,7.908c2.523,7.554,4.648,18.75,10.469,29.115,2.735,4.87,2.983,7.735,2.262,9.248s-2.755,2.488-6.086,2.949c-6.662.923-17.271-.44-25.912.217a7.357,7.357,0,0,1-4.125-.648,3.864,3.864,0,0,1-1.842-2.205c-.738-2.009-.423-5.307.922-8.807,2.689-7,9.318-14.505,15.5-15.607a5.778,5.778,0,0,1,3.051.049c.454.2.548.344.65.879.2,1.07-.459,3.6-1.721,6.2A76.975,76.975,0,0,1,332.953,280a1.5,1.5,0,1,0,2.379,1.826,77.5,77.5,0,0,0,7.187-11.412c1.367-2.818,2.449-5.55,1.969-8.07a4.24,4.24,0,0,0-2.387-3.064,8.181,8.181,0,0,0-4.787-.256c-7.981,1.423-14.773,9.676-17.773,17.484-1.5,3.9-2.094,7.771-.937,10.918a7.055,7.055,0,0,0,3.213,3.8,10.283,10.283,0,0,0,5.8,1.012c8.122-.617,18.648.794,26.1-.238,3.724-.516,6.989-1.7,8.385-4.629s.579-6.782-2.355-12.008c-5.519-9.828-7.6-20.694-10.24-28.6-1.32-3.952-2.747-7.236-5.2-9.268s-5.925-2.367-10.014-.689c-4.19,1.719-8.946,5.67-13.686,10.758a100.152,100.152,0,0,0-13.047,17.633c-3.647,6.311-6.3,12.673-6.908,18.191a14.746,14.746,0,0,0,.873,7.561,9.831,9.831,0,0,0,5.252,5.113c8.282,3.562,13.486,10.947,18.2,16.781a41.4,41.4,0,0,0,4.191,4.527c-.793-.266-1.3-.445-2.145-.723-9.129-2.986-15.517-3.715-20.133-5.184s-7.522-3.436-10.7-9.531c-3.138-6.019-3.641-12.191-3.633-18.982s.548-14.154-.713-22.254c-.593-3.81-.419-6.372.2-7.994a4.892,4.892,0,0,1,3.2-3.072c3.257-1.252,9.168-.975,16.338-1.432,4.03-.257,7.094-2.538,9.455-5.486a62.273,62.273,0,0,0,5.992-10.1c1.824-3.492,3.67-6.812,5.852-9.059a9.113,9.113,0,0,1,7.979-3.145Z"/>
    <path id="Path_124" class="cls-4" d="M225.863,253.99a19.43,19.43,0,0,0-7.49,2c-4.818,2.283-9.772,6-18.238,9.928-8.543,3.963-14.443,6.132-19.074,9.5s-7.775,7.957-10.525,16.123c-2.9,8.61-.111,18.053,3.246,25.326a69.735,69.735,0,0,0,7.281,12.313,179.689,179.689,0,0,0,9.063,18.234,70.373,70.373,0,0,0,8.641,12.326,19.955,19.955,0,0,0,4.732,3.926,7.46,7.46,0,0,0,5.184,1.01c5.661-1.2,10.755-4.59,15.68-7.352s9.567-4.849,14.2-4.125a1.5,1.5,0,0,0,.463-2.965c-5.781-.9-11.084,1.64-16.135,4.473s-9.962,6-14.834,7.035a4.457,4.457,0,0,1-3.1-.7,17.432,17.432,0,0,1-4-3.35,68.368,68.368,0,0,1-8.24-11.783,180.139,180.139,0,0,1-8.963-18.047,1.5,1.5,0,0,0-.2-.34,68.354,68.354,0,0,1-7.057-11.918c-3.2-6.936-5.621-15.707-3.127-23.111,2.644-7.848,5.315-11.649,9.445-14.654a48.6,48.6,0,0,1,8.053-4.434,10.58,10.58,0,0,0-1.588,3.5c-1.745,7.166-.913,12-.092,16.83a44.787,44.787,0,0,1,.117,17.92c-1.551,8.334-3.827,16.193-1.574,22.023,1.126,2.915,3.623,5.152,7.477,6.084s9.068.766,16.32-.611c13.816-2.624,21.727,2.451,28.17,7.254,3.222,2.4,6,4.781,9.064,6.02a9.7,9.7,0,0,0,9.967-1.6,12.483,12.483,0,0,0,4.859-10.057c.076-3.739-.947-7.64-2-11.475a61.655,61.655,0,0,1-2.4-10.9c-.248-3.291.278-5.967,2.363-8.176,4.783-5.066,9.429-8.707,11.488-12.934a8.262,8.262,0,0,0,.328-6.877c-.964-2.363-2.98-4.654-6.232-7.209-6.124-4.811-10.628-10.392-15.355-15.475s-9.728-9.69-16.8-12.189a23.6,23.6,0,0,0-9.119-1.561Zm.168,2.916a20.732,20.732,0,0,1,7.951,1.473c6.4,2.262,10.978,6.432,15.6,11.4s9.251,10.727,15.7,15.791c3.032,2.382,4.653,4.376,5.309,5.982a4.889,4.889,0,0,1-.248,4.43c-1.528,3.137-6.041,6.966-10.973,12.189-2.772,2.936-3.457,6.694-3.174,10.461a62.282,62.282,0,0,0,2.5,11.471c1.047,3.8,1.962,7.484,1.9,10.615a9.113,9.113,0,0,1-3.691,7.74c-2.785,2.145-4.645,2.15-7.012,1.193s-5.1-3.183-8.4-5.643c-6.6-4.919-15.774-10.6-30.52-7.8-7.029,1.335-11.9,1.4-15.055.643s-4.573-2.15-5.385-4.25c-1.623-4.2.15-11.929,1.725-20.393a48.461,48.461,0,0,0-.107-18.973c-.823-4.845-1.576-8.948.047-15.615.753-3.091,2.017-4.19,4.1-4.775s5.144-.368,8.768.146c7.248,1.029,16.725,3.109,26.188-.283a6.58,6.58,0,0,1,5.123.088,11.914,11.914,0,0,1,4.58,3.973c2.889,3.878,5.256,10.042,6.836,16.9A97.455,97.455,0,0,1,250.2,314.8c0,6.711-.866,12.612-2.4,15.945-1.578,3.433-3.154,4.46-5.246,4.584s-5.017-.967-8.516-2.869c-7-3.8-16.188-10.543-27.514-14.154-5.322-1.7-7.457-3.622-7.961-5.221s.32-3.7,2.441-6.309c4.242-5.219,12.929-11.457,18.8-17.83a7.36,7.36,0,0,1,3.459-2.34,3.866,3.866,0,0,1,2.852.357c1.91.966,3.929,3.594,5.332,7.07,2.807,6.953,3.077,16.963-.691,21.984a5.778,5.778,0,0,1-2.264,2.045.918.918,0,0,1-1.076-.2c-.879-.644-2.118-2.944-2.969-5.707a77.016,77.016,0,0,1-2.408-12.652,1.5,1.5,0,1,0-2.986.287,77.568,77.568,0,0,0,2.527,13.248c.922,2.993,1.995,5.728,4.064,7.244a4.241,4.241,0,0,0,3.836.613,8.177,8.177,0,0,0,3.676-3.076c4.866-6.484,4.2-17.152,1.072-24.908-1.566-3.878-3.768-7.112-6.76-8.625a7.058,7.058,0,0,0-4.941-.588,10.282,10.282,0,0,0-4.928,3.215c-5.519,5.991-14.181,12.137-18.924,17.971-2.371,2.917-3.95,6.011-2.975,9.1s4.2,5.355,9.912,7.176c10.739,3.424,19.671,9.952,26.992,13.932,3.66,1.99,6.945,3.42,10.127,3.23s5.947-2.311,7.793-6.326c1.892-4.115,2.675-10.248,2.672-17.2A100.175,100.175,0,0,0,250.719,293c-1.637-7.1-4.037-13.565-7.354-18.018a14.744,14.744,0,0,0-5.795-4.934,9.831,9.831,0,0,0-7.328-.158c-8.487,3.043-17.328,1.193-24.752.139a41.4,41.4,0,0,0-6.156-.453c.763-.347,1.252-.559,2.064-.936,8.713-4.042,13.882-7.863,18.26-9.937A16.345,16.345,0,0,1,226.031,256.906Z"/>
    <path id="Path_125" data-name="Path 125" class="cls-5" d="M360.779,183.93c-2.915-3.355-2.248-10.718,1.108-13.633s8.128-.28,11.043,3.075a8.048,8.048,0,0,1-12.151,10.558Z"/>
    <g id="Path_126" data-name="Path 126" transform="matrix(-0.656, -0.755, 0.755, -0.656, 366.646, 185.213)">
      <path id="path15" class="cls-6" d="M8.047,0c4.444,0,9.563,5.332,9.563,9.776s-5.119,6.318-9.563,6.318A8.047,8.047,0,1,1,8.047,0Z"/>
      <path id="path17" class="cls-4" d="M8.047,3a5.047,5.047,0,0,0,0,10.095,10.768,10.768,0,0,0,4.987-1.112,3.58,3.58,0,0,0,1.234-1.041,1.965,1.965,0,0,0,.343-1.165,7.264,7.264,0,0,0-2.266-4.464A6.858,6.858,0,0,0,8.047,3m0-3c4.444,0,9.563,5.332,9.563,9.776s-5.119,6.318-9.563,6.318A8.047,8.047,0,1,1,8.047,0Z"/>
    </g>
    <path id="Path_127" class="cls-4" d="M351.111,178.184a18.394,18.394,0,0,0-4.186.158c-3.673.515-9.126,2.1-16.537,6.307a37.361,37.361,0,0,0-17.893,23.76,1.5,1.5,0,0,0,2.918.7,34.356,34.356,0,0,1,16.453-21.852c7.145-4.051,12.24-5.492,15.477-5.945a15.405,15.405,0,0,1,3.5-.143,3.894,3.894,0,0,1,.908.143,1.5,1.5,0,1,0,.953-2.846A8.487,8.487,0,0,0,351.111,178.184Z"/>
    <path id="Path_128" data-name="Path 128" class="cls-5" d="M341.5,158.363c-4.422.467-10.075-4.3-10.542-8.723s4.43-6.824,8.852-7.291a8.051,8.051,0,1,1,1.69,16.014Z"/>
    <g id="Path_129" data-name="Path 129" transform="translate(345.918 154.288) rotate(173.976)">
      <path id="path22" class="cls-6" d="M8.047,0c4.444,0,9.563,5.332,9.563,9.776s-5.119,6.318-9.563,6.318A8.047,8.047,0,1,1,8.047,0Z"/>
      <path id="path24" class="cls-4" d="M8.047,3a5.047,5.047,0,0,0,0,10.095,10.768,10.768,0,0,0,4.987-1.112,3.58,3.58,0,0,0,1.234-1.041,1.965,1.965,0,0,0,.343-1.165,7.264,7.264,0,0,0-2.266-4.464A6.858,6.858,0,0,0,8.047,3m0-3c4.444,0,9.563,5.332,9.563,9.776s-5.119,6.318-9.563,6.318A8.047,8.047,0,1,1,8.047,0Z"/>
    </g>
    <path id="Path_130" class="cls-4" d="M333.33,161.539a1.5,1.5,0,0,0-.937.307,8.406,8.406,0,0,0-1.145,1.139,18.377,18.377,0,0,0-2.27,3.518c-1.685,3.3-3.511,8.683-4.32,17.162a1.5,1.5,0,1,0,2.986.285c.78-8.174,2.522-13.173,4.006-16.084a15.4,15.4,0,0,1,1.889-2.945,3.926,3.926,0,0,1,.637-.662,1.5,1.5,0,0,0-.846-2.719Z"/>
    <path id="Path_131" data-name="Path 131" class="cls-5" d="M283.462,369.185c4.176-1.52,10.81,1.74,12.33,5.916s-2.649,7.688-6.825,9.208a8.047,8.047,0,1,1-5.5-15.123Z"/>
    <g id="Path_132" data-name="Path 132" transform="matrix(0.94, -0.342, 0.342, 0.94, 280.164, 374.204)">
      <path id="path29" class="cls-6" d="M8.047,0c4.444,0,9.563,5.332,9.563,9.776s-5.119,6.318-9.563,6.318A8.047,8.047,0,1,1,8.047,0Z"/>
      <path id="path31" class="cls-4" d="M8.047,3a5.047,5.047,0,0,0,0,10.095,10.768,10.768,0,0,0,4.987-1.112,3.58,3.58,0,0,0,1.234-1.041,1.965,1.965,0,0,0,.343-1.165,7.264,7.264,0,0,0-2.266-4.464A6.858,6.858,0,0,0,8.047,3m0-3c4.444,0,9.563,5.332,9.563,9.776s-5.119,6.318-9.563,6.318A8.047,8.047,0,1,1,8.047,0Z"/>
    </g>
    <path id="Path_133" class="cls-4" d="M277.072,315.063a1.5,1.5,0,0,0-.857,2.748A34.35,34.35,0,0,1,290.717,341c1.221,8.122.742,13.394.006,16.578a15.384,15.384,0,0,1-1.121,3.314,4.06,4.06,0,0,1-.457.8,1.5,1.5,0,1,0,2.315,1.908,8.464,8.464,0,0,0,.836-1.383,18.379,18.379,0,0,0,1.352-3.963c.836-3.613,1.3-9.274.037-17.7a37.358,37.358,0,0,0-15.768-25.219,1.5,1.5,0,0,0-.844-.275Z"/>
    <path id="Path_134" data-name="Path 134" class="cls-5" d="M314.246,360.353c1.151-4.293,7.628-7.857,11.92-6.706s4.777,6.581,3.626,10.874a8.048,8.048,0,1,1-15.547-4.168Z"/>
    <g id="Path_135" data-name="Path 135" transform="translate(316.463 365.934) rotate(-74.991)">
      <path id="path36" class="cls-6" d="M8.047,0c4.444,0,9.563,5.332,9.563,9.776s-5.119,6.318-9.563,6.318A8.047,8.047,0,1,1,8.047,0Z"/>
      <path id="path38" class="cls-4" d="M8.047,3a5.047,5.047,0,0,0,0,10.095,10.768,10.768,0,0,0,4.987-1.112,3.58,3.58,0,0,0,1.234-1.041,1.965,1.965,0,0,0,.343-1.165,7.264,7.264,0,0,0-2.266-4.464A6.858,6.858,0,0,0,8.047,3m0-3c4.444,0,9.563,5.332,9.563,9.776s-5.119,6.318-9.563,6.318A8.047,8.047,0,1,1,8.047,0Z"/>
    </g>
    <path id="Path_136" class="cls-4" d="M295.934,335.393a1.5,1.5,0,0,0-.613,2.852c7.354,3.658,11.4,7.077,13.584,9.506a15.39,15.39,0,0,1,2.072,2.818,3.931,3.931,0,0,1,.391.834,1.5,1.5,0,1,0,2.891-.8,8.386,8.386,0,0,0-.652-1.477,18.375,18.375,0,0,0-2.471-3.381c-2.481-2.757-6.851-6.389-14.479-10.184a1.5,1.5,0,0,0-.723-.166Z"/>
    <path id="Path_137" data-name="Path 137" class="cls-7" d="M160.618,226.245c3.54-.688,8.442,2.766,9.13,6.306s-3.1,5.824-6.638,6.512a6.529,6.529,0,0,1-2.492-12.818Z"/>
    <path id="Path_221" data-name="Path 221" class="cls-4" d="M173.256,237.3a4.331,4.331,0,0,1,4.392,3.034c.331,1.7-1.493,2.8-3.193,3.133a3.141,3.141,0,0,1-1.2-6.167Z"/>
  </g>
</svg>
